<svg width="737" height="1088" viewBox="0 0 737 1088" fill="none" xmlns="http://www.w3.org/2000/svg">
<path d="M237 175.9L402.6 143.5V587.2L530.4 446.8C538.2 437.8 542.4 430.3 543 424.3C543.6 418.3 542.1 413.5 538.5 409.9C534.9 406.3 529.8 403.9 523.2 402.7C516.6 400.9 510.3 400 504.3 400V388.3H633V400C615.6 400 601.5 402.7 590.7 408.1C580.5 412.9 569.4 421.3 557.4 433.3C543.6 445.9 530.4 459.1 517.8 472.9C505.8 486.7 493.8 500.5 481.8 514.3C472.2 523.9 462.9 534.1 453.9 544.9C458.7 558.1 466.8 568.6 478.2 576.4C489.6 584.2 503.1 588.1 518.7 588.1C529.5 588.1 540.6 586.3 552 582.7C565.8 607.3 579.6 631.6 593.4 655.6C605.4 676 617.7 697.9 630.3 721.3C643.5 744.1 655.2 764.8 665.4 783.4C675.6 799 685.2 809.2 694.2 814C703.8 818.8 716.4 821.2 732 821.2V832H673.5C648.3 832 627.3 827.2 610.5 817.6C594.3 808 579.9 791.8 567.3 769C563.7 762.4 560.1 756.1 556.5 750.1C552.9 743.5 549.3 736.9 545.7 730.3L445.8 553C438.6 561.4 431.4 569.5 424.2 577.3C417 584.5 409.8 592.3 402.6 600.7V771.7C402.6 792.7 408.6 806.2 420.6 812.2C433.2 818.2 447.9 821.2 464.7 821.2V832H249.6V821.2C266.4 821.2 281.1 818.2 293.7 812.2C306.3 806.2 312.6 792.7 312.6 771.7V238C312.6 220 305.7 207.1 291.9 199.3C278.7 191.5 260.4 187.6 237 187.6V175.9Z" fill="black"/>
<path d="M179.937 759.1C179.957 776.5 181.771 789.698 185.381 798.694C188.991 807.691 196.198 813.683 207.001 816.671C218.404 819.658 234.906 821.14 256.506 821.116C258.306 821.114 259.208 822.913 259.212 826.513C259.216 830.113 258.318 831.914 256.518 831.916C242.118 831.932 225.917 831.65 207.917 831.07C190.516 830.489 171.016 830.21 149.416 830.234C129.616 830.256 110.416 830.577 91.8168 831.198C73.8175 831.818 57.6178 832.135 43.2178 832.151C41.4178 832.153 40.5158 830.354 40.5119 826.754C40.5079 823.154 41.4059 821.353 43.2059 821.351C64.8059 821.328 81.3042 819.809 92.7009 816.797C104.098 813.784 111.591 807.776 115.181 798.772C118.771 789.768 120.557 776.566 120.537 759.166L120.078 342.466C120.058 325.066 118.244 312.168 114.635 303.772C111.025 294.776 103.518 288.784 92.1151 285.797C80.7112 282.21 64.2092 280.428 42.6092 280.452C40.8092 280.454 39.9072 278.655 39.9032 275.055C39.8993 271.455 40.7973 269.654 42.5973 269.652C56.9973 269.636 73.1979 270.218 91.1992 271.398C109.8 271.978 129 272.256 148.8 272.235C170.4 272.211 190.2 271.889 208.199 271.269C226.198 270.049 242.097 269.432 255.897 269.416C257.697 269.414 258.599 271.213 258.603 274.813C258.607 278.413 257.709 280.214 255.909 280.216C234.309 280.24 217.811 282.058 206.415 285.671C195.619 289.283 188.426 295.591 184.836 304.595C181.246 313.599 179.46 326.801 179.48 344.201L179.937 759.1Z" fill="black"/>
</svg>
